<svg id="Contenido" xmlns="http://www.w3.org/2000/svg" xmlns:xlink="http://www.w3.org/1999/xlink" viewBox="0 0 600 600"><defs><style>.cls-1{fill:url(#Degradado_sin_nombre_16);}.cls-2{fill:#2dcccd;}.cls-3{fill:#49a5e6;}.cls-4{fill:#1464a5;}.cls-5{fill:url(#Degradado_sin_nombre_120);}.cls-6{fill:url(#Degradado_sin_nombre_120-2);}.cls-7{fill:#f8cd50;}.cls-8{fill:url(#Degradado_sin_nombre_13);}</style><linearGradient id="Degradado_sin_nombre_16" x1="263.35" y1="206.37" x2="425.88" y2="512.06" gradientUnits="userSpaceOnUse"><stop offset="0" stop-color="#1c2645"/><stop offset="0" stop-color="#1c2645" stop-opacity="0.5"/><stop offset="1" stop-color="#1c2645" stop-opacity="0"/></linearGradient><linearGradient id="Degradado_sin_nombre_120" x1="271.65" y1="295.75" x2="141.47" y2="295.75" gradientUnits="userSpaceOnUse"><stop offset="0" stop-color="#043263" stop-opacity="0.5"/><stop offset="1" stop-color="#043263" stop-opacity="0.1"/></linearGradient><linearGradient id="Degradado_sin_nombre_120-2" x1="505.65" y1="295.75" x2="375.47" y2="295.75" xlink:href="#Degradado_sin_nombre_120"/><linearGradient id="Degradado_sin_nombre_13" x1="223" y1="301.25" x2="173" y2="301.25" gradientUnits="userSpaceOnUse"><stop offset="0" stop-color="#028484" stop-opacity="0.4"/><stop offset="1" stop-color="#028484" stop-opacity="0.1"/></linearGradient></defs><title>values-day</title><path class="cls-1" d="M555.65,341.79c0-1,0-1.89,0-2.83l0-.79q0-1.11-.12-2.22c0-.22,0-.44,0-.66-.07-.93-.15-1.85-.24-2.77l-.06-.51c-.09-.77-.18-1.54-.28-2.3,0-.25-.07-.5-.11-.74q-.18-1.25-.39-2.49c0-.08,0-.17-.05-.25-.16-.92-.34-1.83-.53-2.74,0-.2-.09-.4-.13-.61-.16-.74-.33-1.47-.51-2.21-.05-.19-.09-.38-.14-.57-.23-.91-.47-1.82-.73-2.72v0c-.25-.87-.52-1.74-.79-2.6-.06-.18-.12-.36-.17-.53-.27-.82-.55-1.62-.83-2.42a1.59,1.59,0,0,1-.07-.2c-.33-.9-.67-1.79-1-2.68,0-.08-.07-.15-.1-.23-.32-.81-.66-1.61-1-2.4l-.14-.33c-.78-1.75-1.6-3.46-2.48-5.15a1.62,1.62,0,0,1-.1-.18c-1.36-2.59-2.85-5.11-4.45-7.54h0a89.1,89.1,0,0,0-24-24.42h0L511,249.14a10,10,0,0,0-9.54-7H432.56a10,10,0,0,0-9.54,7l-3.47,11H280.45l-3.47-11a10,10,0,0,0-9.54-7H198.56a10,10,0,0,0-9.54,7l-6.15,19.51h0a88.69,88.69,0,0,0-28.55,114.07v47.61a30,30,0,0,0,30,30h20.75a78.3,78.3,0,0,0,68-39.49,89,89,0,0,0,34.61-31.36h84.54a89,89,0,0,0,34.61,31.36,78.3,78.3,0,0,0,68,39.49h20.75a30,30,0,0,0,30-30V382.72A88.3,88.3,0,0,0,555.65,341.79Z"/><path class="cls-2" d="M217.44,190.9H148.56a10,10,0,0,0-9.54,7l-6.15,19.51H233.13L227,197.89A10,10,0,0,0,217.44,190.9Z"/><path class="cls-2" d="M451.44,190.9H382.56a10,10,0,0,0-9.54,7l-6.15,19.51H467.13L461,197.89A10,10,0,0,0,451.44,190.9Z"/><path class="cls-3" d="M104.35,284.55v94.53a30,30,0,0,0,30,30h20.75a78.28,78.28,0,0,0,69.14-41.54l22.47-42.26Z"/><path class="cls-3" d="M495.65,284.55v94.53a30,30,0,0,1-30,30H444.88a78.28,78.28,0,0,1-69.14-41.54L353.27,325.3Z"/><rect class="cls-3" x="183" y="208.9" width="234" height="129.36"/><circle class="cls-4" cx="183" cy="290.55" r="88.65"/><path class="cls-5" d="M224.71,212.32,141.47,368.87a88.65,88.65,0,0,0,83.24-156.55Z"/><circle class="cls-4" cx="417" cy="290.55" r="88.65"/><path class="cls-6" d="M458.71,212.32,375.47,368.87a88.65,88.65,0,0,0,83.24-156.55Z"/><path class="cls-2" d="M220,280.55H193v-27a3,3,0,0,0-3-3H176a3,3,0,0,0-3,3v27H146a3,3,0,0,0-3,3v14a3,3,0,0,0,3,3h27v27a3,3,0,0,0,3,3h14a3,3,0,0,0,3-3v-27h27a3,3,0,0,0,3-3v-14A3,3,0,0,0,220,280.55Z"/><circle class="cls-7" cx="382" cy="290.55" r="13"/><circle class="cls-7" cx="417" cy="325.55" r="13"/><circle class="cls-7" cx="452" cy="290.55" r="13"/><circle class="cls-7" cx="417" cy="255.55" r="13"/><path class="cls-8" d="M220,280.55H193V272l-20,37.61v18a3,3,0,0,0,3,3h14a3,3,0,0,0,3-3v-27h27a3,3,0,0,0,3-3v-14A3,3,0,0,0,220,280.55Z"/></svg>